<svg viewBox="0 0 57.11 80" xmlns="http://www.w3.org/2000/svg"><path d="m47.45 80a1.64 1.64 0 1 1 1.63-1.64 1.63 1.63 0 0 1 -1.63 1.64zm0-3a1.4 1.4 0 1 0 1.38 1.4 1.39 1.39 0 0 0 -1.38-1.4zm.4 2.3-.42-.73h-.27v.73h-.25v-1.8h.61a.55.55 0 0 1 .57.54.49.49 0 0 1 -.39.49l.43.77zm-.35-1.58h-.34v.63h.34a.31.31 0 0 0 .34-.31.32.32 0 0 0 -.34-.36z" fill="#1e3f74"/><path d="m17.63 9.73 3.71 2.59 1.65-4.22 3.14 3.27 2.43-3.81 2.44 3.81 3.13-3.26 1.65 4.21 3.71-2.59.79 4.46 2.77-1.21v-11.59h-29v11.57l2.79 1.22z" fill="#1e3f74"/><path d="m39.48 62.5-3.71-2.59-1.65 4.22-3.13-3.27-2.44 3.81-2.44-3.81-3.13 3.26-1.65-4.21-3.71 2.58-.79-4.45-2.79 1.22v17.9l14.52-11.14 14.51 11.14v-17.89l-2.8-1.22z" fill="#1e3f74"/><path d="m53.3 38.56 3.81-2.44-3.81-2.44 3.27-3.13-4.22-1.65 2.59-3.71-4.45-.79 1.81-4.15-4.52.09 1-4.41-4.32.94v-16.87h-31.8v16.86l-4.29-.94 1 4.41-4.52-.09 1.81 4.15-4.45.79 2.58 3.71-4.24 1.65 3.26 3.13-3.81 2.44 3.81 2.44-3.26 3.13 4.21 1.65-2.59 3.67 4.45.8-1.81 4.2 4.52-.08-1 4.41 4.3-.94v24.61l15.93-12.23 15.9 12.23v-24.63l4.28.94-1-4.42 4.56.11-1.82-4.14 4.46-.79-2.59-3.71 4.21-1.65zm-39.25-37.17h28.95v11.61l-2.76 1.21-.79-4.46-3.71 2.59-1.61-4.23-3.13 3.26-2.44-3.81-2.43 3.81-3.13-3.27-1.65 4.22-3.72-2.59-.79 4.45-2.79-1.18zm29 75.77-14.49-11.16-14.56 11.16v-17.9l2.83-1.26.79 4.45 3.71-2.58 1.67 4.25 3.13-3.26 2.44 3.81 2.43-3.81 3.13 3.27 1.65-4.22 3.71 2.59.79-4.45 2.8 1.22v17.89z" fill="#f1bb25"/><path d="m28.54 12.39a23.74 23.74 0 1 0 23.77 23.76 23.75 23.75 0 0 0 -23.77-23.76z" fill="#1e3f74"/><g fill="#fff"><path d="m42.87 26.9-2.3 1.6-.75-1.08 2.29-1.6 2.12-4 .83 1.18-1.52 2.61 3-.55.83 1.18z"/><path d="m35.56 23.55 4.13-5.41 3.57 2.71-.71.94-2.55-1.91-1 1.27 2.14 1.63-.72.94-2.14-1.63-1 1.32 2.51 1.91-.72.94z"/><path d="m30.77 21.93 1.83-6.56 1.28.36-1.51 5.41 3 .82-.37 1.15z"/><path d="m25.62 22.08-.62-6.77 1.33-.12.5 5.59 3.08-.28.09 1.18z"/><path d="m20.64 24.08-2.84-6.18 4.08-1.9.5 1.08-2.88 1.34.67 1.45 2.45-1.11.49 1.07-2.45 1.17.7 1.5 2.87-1.31.5 1.07z"/><path d="m19.08 25.54-3.49-.74.21 1.36 1.54 1.35-.89 1-5.11-4.51.89-1 2.22 2-.63-3.76 1.07-1.24.54 3.47 4.68.91z"/><path d="m48.51 39.9-1.62-3.42-.81 1.16v2.26h-1.23v-7.51h1.23v3.27l2.22-3.27h1.49l-2.09 3 2.24 4.52z"/><path d="m43.42 39.14a2.18 2.18 0 0 1 -3.41 0c-.64-.76-.62-1.7-.62-3s0-2.23.62-3a2.18 2.18 0 0 1 3.41 0c.63.76.62 1.7.62 3s.01 2.24-.62 3zm-.92-5.14a.93.93 0 0 0 -.78-.41 1 1 0 0 0 -.8.41c-.24.31-.3.66-.3 2.11s.06 1.79.3 2.1a1 1 0 0 0 .8.41.93.93 0 0 0 .78-.41c.24-.31.31-.66.31-2.1s-.07-1.76-.31-2.11z"/><path d="m38.17 39.14a2.17 2.17 0 0 1 -3.4 0c-.64-.76-.62-1.7-.62-3s0-2.23.62-3a2.17 2.17 0 0 1 3.4 0c.64.76.63 1.7.63 3s.01 2.24-.63 3zm-.91-5.14a1 1 0 0 0 -1.58 0c-.24.31-.3.66-.3 2.11s.06 1.79.3 2.1a1 1 0 0 0 1.58 0c.24-.31.31-.66.31-2.1s-.07-1.76-.31-2.11z"/><path d="m31.63 39.9h-2.63v-7.51h2.53a1.88 1.88 0 0 1 1.95 2.11 1.79 1.79 0 0 1 -.78 1.55 1.79 1.79 0 0 1 .87 1.69 1.91 1.91 0 0 1 -1.94 2.16zm-.21-6.2h-1.2v1.73h1.2a.87.87 0 0 0 0-1.73zm.08 3h-1.28v1.84h1.28a.83.83 0 0 0 .83-.93.81.81 0 0 0 -.83-.86z"/><path d="m22.49 39.9v-7.51h4.15v1.31h-2.92v1.76h2.49v1.31h-2.49v1.82h2.92v1.31z"/><path d="m19.26 40a2.4 2.4 0 0 1 -2.32-2.63v-4.98h1.23v4.88c0 .87.42 1.39 1.09 1.39s1.09-.52 1.09-1.39v-4.88h1.22v4.94a2.39 2.39 0 0 1 -2.31 2.67z"/><path d="m12.51 39.9v-7.51h1.23v6.2h2.86v1.31z"/><path d="m9.78 39.9h-2.64v-7.51h2.53a1.88 1.88 0 0 1 1.95 2.11 1.79 1.79 0 0 1 -.78 1.55 1.79 1.79 0 0 1 .86 1.69 1.9 1.9 0 0 1 -1.92 2.16zm-.21-6.2h-1.2v1.73h1.2a.87.87 0 0 0 0-1.73zm.08 3h-1.28v1.84h1.28a.83.83 0 0 0 .83-.93.81.81 0 0 0 -.83-.86z"/><path d="m12.7 47.06a1.42 1.42 0 0 1 -.95-.62 1.46 1.46 0 0 1 -.24-1.13c.11-.56.53-.84 1.09-1.24s1-.69 1.52-.6a1.5 1.5 0 0 1 1.18 1.75c-.11.56-.52.85-1.08 1.24s-.97.69-1.52.6zm1.9-2a.65.65 0 0 0 -.1-.53.67.67 0 0 0 -.45-.29c-.22 0-.4 0-1 .49s-.76.58-.81.8a.61.61 0 0 0 .1.53.62.62 0 0 0 .45.29c.22 0 .39 0 1-.49s.76-.61.81-.86z"/><path d="m16.09 46.78-.71.69 1 1.12-.5.48-1-1.12-1.16 1.14-.52-.56 2.86-2.79 1.76 1.87-.5.49z"/><path d="m18.44 49-.57.8 1.22.92-.4.56-1.23-.91-.95 1.32-.61-.45 2.34-3.24 2.05 1.52-.41.57z"/><path d="m19 53.32 1.82-3.59.67.35-1.82 3.59z"/><path d="m21.77 54.6a1.39 1.39 0 0 1 -.83-.78 2.12 2.12 0 0 1 .18-1.64c.24-.66.4-1.14.9-1.39a1.38 1.38 0 0 1 1.13 0 1.4 1.4 0 0 1 .9 1.7l-.72-.27a.67.67 0 0 0 -.41-.77.64.64 0 0 0 -.53 0c-.19.11-.3.28-.56 1s-.28.93-.2 1.14a.57.57 0 0 0 .38.36.63.63 0 0 0 .8-.31l.72.27a1.36 1.36 0 0 1 -1.76.69z"/><path d="m24 55.29.81-4 .74.16-.81 4z"/><path d="m27.79 55.82-.17-.74-1.36-.08-.29.7-.78-.07 1.71-3.91.59.05 1.08 4.14zm-.67-2.92-.6 1.43.95.08z"/><path d="m29.07 55.82-.23-4h.75l.19 3.33 1.75-.15v.71z"/><path d="m35.43 54.05a1.42 1.42 0 0 1 -.87.81 1.36 1.36 0 0 1 -1.12 0c-.51-.25-.66-.73-.9-1.39a2.15 2.15 0 0 1 -.18-1.65 1.45 1.45 0 0 1 2.64-.11l-.72.26a.64.64 0 0 0 -.85-.31.63.63 0 0 0 -.43.34c-.08.21 0 .4.21 1.13s.36.9.55 1a.64.64 0 0 0 .53 0 .67.67 0 0 0 .42-.4.8.8 0 0 0 0-.57l-.05-.14-.67.24-.22-.62 1.37-.5.19.55a1.64 1.64 0 0 1 .1 1.36z"/><path d="m38.1 53.35a1.35 1.35 0 0 1 -1.92-.53l-1.27-2.33.66-.37 1.26 2.3a.64.64 0 0 0 .93.32.68.68 0 0 0 .24-1l-1.26-2.29.65-.37 1.27 2.32a1.39 1.39 0 0 1 -.56 1.95z"/><path d="m40.34 51.9-2.5-3.13.59-.49 2.5 3.14z"/><path d="m43.15 48.83a1.42 1.42 0 0 1 -.46 1l-1 1-2.78-2.83 1-1a1.36 1.36 0 0 1 1-.45c.62 0 1 .44 1.4.87a2.21 2.21 0 0 1 .84 1.41zm-2.24-1.54a.64.64 0 0 0 -.57.22l-.41.41 1.82 1.88.4-.41a.68.68 0 0 0 .23-.58c0-.23-.21-.46-.63-.89s-.62-.6-.84-.63z"/><path d="m44.23 48-3.3-2.24 1.41-2.16.57.39-1 1.52.78.52.84-1.29.57.39-.84 1.29.8.55 1-1.52.58.39z"/></g><path d="m28.49 24.69a11.39 11.39 0 0 1 10.45 6.87h.7a12 12 0 0 0 -22.3 0h.66a11.39 11.39 0 0 1 10.49-6.87z" fill="#f1bb25"/><path d="m28.49 47.5a11.41 11.41 0 0 1 -10.42-6.78h-.7a12 12 0 0 0 22.24 0h-.71a11.39 11.39 0 0 1 -10.41 6.78z" fill="#f1bb25"/></svg>